<?xml version="1.0" encoding="utf-8"?>
<!-- Generator: Adobe Illustrator 20.1.0, SVG Export Plug-In . SVG Version: 6.00 Build 0)  -->
<svg version="1.1" id="Capa_1" xmlns="http://www.w3.org/2000/svg" xmlns:xlink="http://www.w3.org/1999/xlink" x="0px" y="0px"
	 viewBox="0 0 204.4 215.6" style="enable-background:new 0 0 204.4 215.6;" xml:space="preserve">
<title>piscosour_logo</title>
<path fill="#fff" d="M194.9,48.6h-79.7C110,17,80.2-4.4,48.6,0.8s-53,35.1-47.8,66.7c4.4,26.4,26.2,46.4,53,48.4c0.8,8.9,30.1,84.5,30.1,84.5
	l-0.2,15.3h85.5l-0.2-15.3c0,0,30.8-90.8,35.3-141.5c0.5-5.2-3.4-9.8-8.6-10.3C195.5,48.6,195.2,48.6,194.9,48.6z M58.1,48.6
	c-5.2,0-9.5,4.2-9.5,9.5c0,0,0,0,0,0c0,0.3,0,0.6,0,0.9l3.5,37.7c-21.3-3.3-35.8-23.3-32.5-44.6s23.3-35.8,44.6-32.5
	c15.5,2.4,28,13.8,31.8,29H58.1z M181.8,97.5H71.1l-2.7-30h116.1L181.8,97.5z"/>
</svg>
